<?xml version="1.0" encoding="utf-8"?>
<!-- Generator: Adobe Illustrator 16.0.0, SVG Export Plug-In . SVG Version: 6.00 Build 0)  -->
<!DOCTYPE svg PUBLIC "-//W3C//DTD SVG 1.1//EN" "http://www.w3.org/Graphics/SVG/1.1/DTD/svg11.dtd">
<svg version="1.1" id="Layer_1" xmlns="http://www.w3.org/2000/svg" xmlns:xlink="http://www.w3.org/1999/xlink" x="0px" y="0px"
	 width="78px" height="78px" viewBox="0 0 78 78" enable-background="new 0 0 78 78" xml:space="preserve">
<g>
	<g>
		<path fill="#282828" stroke="#282828" stroke-width="0.885" stroke-miterlimit="10" d="M28.523,39.39h-4.503
			c-1.619,0-2.937-1.422-2.937-3.172V25.424c0-1.749,1.317-3.172,2.937-3.172h29.958c1.619,0,2.938,1.423,2.938,3.172v10.717
			c0,1.749-1.319,3.171-2.938,3.171h-4.579v-0.555h4.579c1.313,0,2.382-1.174,2.382-2.616V25.424c0-1.442-1.068-2.616-2.382-2.616
			H24.021c-1.313,0-2.382,1.174-2.382,2.616v10.794c0,1.443,1.068,2.617,2.382,2.617h4.503V39.39z"/>
		<path fill="#282828" stroke="#282828" stroke-width="0.885" stroke-miterlimit="10" d="M52.75,33.055H25.528
			c-0.151,0-0.276-0.124-0.276-0.278v-4.615h0.556v4.337H52.75V33.055z"/>
		<path fill="#282828" stroke="#282828" stroke-width="0.885" stroke-miterlimit="10" d="M52.473,33.055H25.251v-0.557h26.943
			v-4.337h0.557v4.615C52.751,32.931,52.626,33.055,52.473,33.055z"/>
		<g>
			<path fill="#FCFCFC" stroke="#282828" stroke-width="0.885" stroke-miterlimit="10" d="M28.715,28.269v23.311
				c0,1.643,1.251,2.894,2.661,2.894h15.252c1.485,0,2.658-1.33,2.658-2.894V28.269H28.715z"/>
			<path fill="#282828" stroke="#282828" stroke-width="0.885" stroke-miterlimit="10" d="M46.628,54.751H31.376
				c-1.62,0-2.938-1.424-2.938-3.172V27.991h21.127v23.588C49.564,53.327,48.247,54.751,46.628,54.751z M28.993,28.547v23.032
				c0,1.442,1.068,2.616,2.383,2.616h15.252c1.312,0,2.381-1.174,2.381-2.616V28.547H28.993z"/>
		</g>
		<path fill="#282828" stroke="#282828" stroke-width="0.885" stroke-miterlimit="10" d="M52.889,32.776h-0.557v-4.337H25.668v4.337
			h-0.556v-4.615c0-0.153,0.125-0.277,0.276-0.277H52.61c0.153,0,0.278,0.124,0.278,0.277V32.776z"/>
		
			<rect x="52.703" y="28.161" fill="#282828" stroke="#282828" stroke-width="0.885" stroke-miterlimit="10" width="0.557" height="4.615"/>
		<g>
			
				<rect x="36.38" y="28.269" fill="#FFFFFF" stroke="#282828" stroke-width="0.885" stroke-miterlimit="10" width="5.241" height="26.282"/>
			<path fill="#282828" stroke="#282828" stroke-width="0.885" stroke-miterlimit="10" d="M41.899,54.829h-5.798V27.991h5.798
				V54.829z M36.658,54.272h4.685V28.547h-4.685V54.272z"/>
		</g>
	</g>
	<path fill="#CBD5DA" d="M74,76.541H4c-1.654,0-3-1.346-3-3v-70c0-1.654,1.346-3,3-3h70c1.654,0,3,1.346,3,3v70
		C77,75.195,75.654,76.541,74,76.541z M4,2.541c-0.552,0-1,0.448-1,1v70c0,0.552,0.448,1,1,1h70c0.552,0,1-0.448,1-1v-70
		c0-0.552-0.448-1-1-1H4z"/>
</g>
</svg>
