<?xml version="1.0" encoding="utf-8"?>
<!-- Generator: Adobe Illustrator 16.0.0, SVG Export Plug-In . SVG Version: 6.00 Build 0)  -->
<!DOCTYPE svg PUBLIC "-//W3C//DTD SVG 1.1//EN" "http://www.w3.org/Graphics/SVG/1.1/DTD/svg11.dtd">
<svg version="1.1" id="Layer_1" xmlns="http://www.w3.org/2000/svg" xmlns:xlink="http://www.w3.org/1999/xlink" x="0px" y="0px"
	 width="78px" height="78px" viewBox="0 0 78 78" enable-background="new 0 0 78 78" xml:space="preserve">
<g>
	<path fill="#333333" d="M52.512,54.437H25.489c-1.064,0-1.93-0.864-1.93-1.928V25.491c0-1.063,0.865-1.928,1.93-1.928h27.023
		c1.063,0,1.928,0.865,1.928,1.928v27.02C54.438,53.573,53.573,54.437,52.512,54.437z M25.489,24.727
		c-0.424,0-0.766,0.343-0.766,0.765v27.018c0,0.422,0.342,0.766,0.766,0.766h27.022c0.421,0,0.765-0.344,0.767-0.766V25.491
		c0-0.422-0.344-0.765-0.766-0.765H25.489z M48.911,50.067H29.089c-0.639,0-1.158-0.52-1.158-1.158V29.091
		c0-0.639,0.52-1.157,1.158-1.157h19.822c0.639,0,1.158,0.52,1.158,1.158v4.374h-1.754l0.006,3.21l1.748-0.005v3.784h-1.754
		l0.006,3.212l1.748-0.006v5.249C50.069,49.548,49.55,50.067,48.911,50.067z M29.093,29.097l0.001,19.813l19.817-0.004l-0.004-4.081
		h-0.592c-0.638,0-1.157-0.521-1.157-1.157V40.45c0-0.638,0.52-1.158,1.157-1.158h0.591v-1.459h-0.591
		c-0.638,0-1.157-0.52-1.157-1.157v-3.215c0-0.639,0.52-1.158,1.157-1.158h0.591v-3.211L29.093,29.097z M38.125,46.573
		c-4.175,0-7.573-3.397-7.573-7.572c0-4.176,3.398-7.573,7.573-7.573c4.176,0,7.573,3.397,7.573,7.573
		C45.698,43.176,42.301,46.573,38.125,46.573z M38.125,32.591c-3.534,0-6.41,2.875-6.41,6.41c0,3.533,2.876,6.408,6.41,6.408
		s6.411-2.875,6.411-6.408C44.536,35.466,41.659,32.591,38.125,32.591z M38.125,42.203c-1.766,0-3.204-1.437-3.204-3.201
		c0-1.767,1.438-3.204,3.204-3.204c1.767,0,3.204,1.438,3.204,3.204C41.329,40.767,39.892,42.203,38.125,42.203z M38.125,36.96
		c-1.125,0-2.041,0.916-2.041,2.042c0,1.124,0.916,2.039,2.041,2.039c1.126,0,2.042-0.915,2.042-2.039
		C40.167,37.876,39.251,36.96,38.125,36.96z"/>
	<path fill="#333333" d="M39,40.481c-0.327,0-0.592-0.265-0.592-0.592V38.11c0-0.327,0.265-0.592,0.592-0.592
		c0.326,0,0.592,0.265,0.592,0.592v1.779C39.592,40.217,39.326,40.481,39,40.481z"/>
	<path fill="#333333" d="M38.229,40.036c-0.205,0-0.404-0.105-0.514-0.297c-0.163-0.283-0.066-0.645,0.217-0.807l1.543-0.891
		c0.285-0.162,0.646-0.065,0.809,0.217c0.163,0.283,0.065,0.645-0.217,0.809l-1.543,0.891
		C38.431,40.012,38.329,40.036,38.229,40.036z"/>
	<path fill="#333333" d="M39.77,40.038c-0.1,0-0.202-0.026-0.296-0.08l-1.541-0.891c-0.283-0.164-0.38-0.525-0.217-0.809
		c0.164-0.282,0.523-0.381,0.81-0.217l1.542,0.891c0.281,0.164,0.379,0.526,0.215,0.809C40.174,39.932,39.975,40.038,39.77,40.038z"
		/>
	<path fill="#CBD5DA" d="M74,77H4c-1.654,0-3-1.346-3-3V4c0-1.654,1.346-3,3-3h70c1.654,0,3,1.346,3,3v70C77,75.654,75.654,77,74,77
		z M4,3C3.449,3,3,3.448,3,4v70c0,0.552,0.449,1,1,1h70c0.552,0,1-0.448,1-1V4c0-0.552-0.448-1-1-1H4z"/>
</g>
</svg>
