<?xml version="1.0" encoding="utf-8"?>
<!-- Generator: Adobe Illustrator 16.0.0, SVG Export Plug-In . SVG Version: 6.00 Build 0)  -->
<!DOCTYPE svg PUBLIC "-//W3C//DTD SVG 1.1//EN" "http://www.w3.org/Graphics/SVG/1.1/DTD/svg11.dtd">
<svg version="1.1" id="Layer_1" xmlns="http://www.w3.org/2000/svg" xmlns:xlink="http://www.w3.org/1999/xlink" x="0px" y="0px"
	 width="78px" height="78px" viewBox="0 0 78 78" enable-background="new 0 0 78 78" xml:space="preserve">
<g>
	<rect x="2.008" y="1.557" fill="#11253A" width="73.5" height="74.333"/>
	<g>
		<path fill="#FFFFFF" d="M52.512,54.436H25.489c-1.064,0-1.93-0.863-1.93-1.928V25.491c0-1.063,0.865-1.928,1.93-1.928h27.023
			c1.063,0,1.928,0.865,1.928,1.928V52.51C54.438,53.572,53.573,54.436,52.512,54.436z M25.489,24.726
			c-0.424,0-0.766,0.343-0.766,0.765v27.017c0,0.422,0.342,0.766,0.766,0.766h27.022c0.421,0,0.765-0.344,0.767-0.766V25.491
			c0-0.422-0.344-0.765-0.766-0.765H25.489z M48.911,50.066H29.089c-0.639,0-1.158-0.52-1.158-1.158V29.09
			c0-0.639,0.52-1.157,1.158-1.157h19.822c0.639,0,1.158,0.52,1.158,1.158v4.374h-1.754l0.006,3.21l1.748-0.005v3.785h-1.754
			l0.006,3.211l1.748-0.006v5.25C50.069,49.547,49.55,50.066,48.911,50.066z M29.093,29.096l0.001,19.812l19.817-0.004l-0.004-4.08
			h-0.592c-0.638,0-1.157-0.521-1.157-1.158v-3.217c0-0.637,0.52-1.158,1.157-1.158h0.591v-1.459h-0.591
			c-0.638,0-1.157-0.52-1.157-1.157V33.46c0-0.639,0.52-1.158,1.157-1.158h0.591v-3.211L29.093,29.096z M38.125,46.572
			c-4.175,0-7.573-3.396-7.573-7.572c0-4.176,3.398-7.573,7.573-7.573c4.176,0,7.573,3.397,7.573,7.573
			C45.698,43.176,42.301,46.572,38.125,46.572z M38.125,32.59c-3.534,0-6.41,2.875-6.41,6.41c0,3.533,2.876,6.408,6.41,6.408
			s6.411-2.875,6.411-6.408C44.536,35.465,41.659,32.59,38.125,32.59z M38.125,42.203c-1.766,0-3.204-1.438-3.204-3.202
			c0-1.767,1.438-3.204,3.204-3.204c1.767,0,3.204,1.438,3.204,3.204C41.329,40.766,39.892,42.203,38.125,42.203z M38.125,36.959
			c-1.125,0-2.041,0.916-2.041,2.042c0,1.124,0.916,2.04,2.041,2.04c1.126,0,2.042-0.916,2.042-2.04
			C40.167,37.875,39.251,36.959,38.125,36.959z"/>
		<path fill="#FFFFFF" d="M38.229,40.035c-0.205,0-0.404-0.105-0.514-0.296c-0.163-0.283-0.066-0.645,0.217-0.807l1.543-0.891
			c0.285-0.162,0.646-0.065,0.809,0.217c0.163,0.283,0.065,0.645-0.217,0.809l-1.543,0.891
			C38.431,40.012,38.329,40.035,38.229,40.035z"/>
		<g>
			<path fill="#FFFFFF" d="M39,40.48c-0.327,0-0.592-0.264-0.592-0.591V38.11c0-0.327,0.265-0.592,0.592-0.592
				c0.326,0,0.592,0.265,0.592,0.592v1.779C39.592,40.217,39.326,40.48,39,40.48z"/>
			<path fill="#FFFFFF" d="M39.771,40.037c-0.1,0-0.203-0.025-0.297-0.08l-1.541-0.891c-0.283-0.164-0.379-0.525-0.217-0.809
				c0.164-0.282,0.523-0.381,0.811-0.217l1.541,0.891c0.283,0.164,0.379,0.526,0.217,0.809
				C40.173,39.931,39.976,40.037,39.771,40.037z"/>
		</g>
	</g>
	<path fill="#11253A" d="M74,77H4c-1.654,0-3-1.346-3-3V4c0-1.654,1.346-3,3-3h70c1.654,0,3,1.346,3,3v70C77,75.654,75.654,77,74,77
		z M4,3C3.449,3,3,3.448,3,4v70c0,0.551,0.449,1,1,1h70c0.552,0,1-0.449,1-1V4c0-0.552-0.448-1-1-1H4z"/>
</g>
</svg>
