<?xml version="1.0" encoding="utf-8"?>
<!-- Generator: Adobe Illustrator 16.0.0, SVG Export Plug-In . SVG Version: 6.00 Build 0)  -->
<!DOCTYPE svg PUBLIC "-//W3C//DTD SVG 1.1//EN" "http://www.w3.org/Graphics/SVG/1.1/DTD/svg11.dtd">
<svg version="1.1" id="Layer_1" xmlns="http://www.w3.org/2000/svg" xmlns:xlink="http://www.w3.org/1999/xlink" x="0px" y="0px"
	 width="78px" height="78px" viewBox="0 0 78 78" enable-background="new 0 0 78 78" xml:space="preserve">
<g>
	<g id="Expanded_2_">
		<g>
			<g>
				<rect x="31.164" y="46.929" fill="#333333" width="10.907" height="1.461"/>
			</g>
			<g>
				<rect x="40.375" y="52.768" fill="#333333" width="6.074" height="1.458"/>
			</g>
			<g>
				<path fill="#333333" d="M39.918,30.879h-2.919c-0.402,0-0.729-0.326-0.729-0.729s0.327-0.729,0.729-0.729h2.919
					c0.402,0,0.73,0.326,0.73,0.729S40.32,30.879,39.918,30.879z"/>
			</g>
			<g>
				<path fill="#333333" d="M46.484,33.797h-8.025c-0.402,0-0.729-0.325-0.729-0.729c0-0.405,0.326-0.73,0.729-0.73h8.025
					c0.402,0,0.729,0.325,0.729,0.73C47.213,33.472,46.887,33.797,46.484,33.797z"/>
			</g>
			<g>
				<path fill="#333333" d="M45.754,36.716H36.27c-0.403,0-0.729-0.325-0.729-0.729c0-0.403,0.327-0.729,0.729-0.729h9.484
					c0.403,0,0.73,0.326,0.73,0.729C46.484,36.391,46.157,36.716,45.754,36.716z"/>
			</g>
			<g>
				<path fill="#333333" d="M46.484,39.635H36.27c-0.403,0-0.729-0.325-0.729-0.73c0-0.404,0.327-0.729,0.729-0.729h10.215
					c0.402,0,0.729,0.325,0.729,0.729C47.213,39.31,46.887,39.635,46.484,39.635z"/>
			</g>
			<g>
				<path fill="#333333" d="M45.025,42.552H36.27c-0.403,0-0.729-0.326-0.729-0.729c0-0.403,0.327-0.73,0.729-0.73h8.756
					c0.402,0,0.729,0.327,0.729,0.73C45.754,42.226,45.428,42.552,45.025,42.552z"/>
			</g>
			<g>
				<path fill="#333333" d="M45.754,45.472H35.54c-0.402,0-0.729-0.327-0.729-0.731c0-0.401,0.327-0.728,0.729-0.728h10.214
					c0.403,0,0.73,0.326,0.73,0.728C46.484,45.145,46.157,45.472,45.754,45.472z"/>
			</g>
			<g>
				<rect x="34.118" y="22.854" fill="#333333" width="18.203" height="1.457"/>
			</g>
			<g>
				<path fill="#333333" d="M37.692,57.145H19.489v-1.459c0.604,0,1.04-0.143,1.332-0.438c0.693-0.698,0.682-2.322,0.671-3.755
					c-0.011-1.602-0.021-3.114,0.828-3.967c0.392-0.395,0.913-0.597,1.547-0.597h6.692c1.471-8,1.334-21.015,1.333-21.147
					c0.017-1.026,0.503-2.927,2.226-2.927v1.457c-0.699,0-0.766,1.457-0.766,1.473c0.006,0.545,0.145,13.937-1.474,22.019
					l-0.119,0.587h-7.893c-0.313,0-0.442,0.094-0.512,0.163c-0.42,0.425-0.412,1.756-0.404,2.93
					c0.011,1.445,0.021,3.057-0.644,4.203h15.385c0.604,0,1.04-0.143,1.332-0.438c0.695-0.698,0.682-2.322,0.671-3.755
					c-0.011-1.602-0.022-3.114,0.828-3.967c0.393-0.395,0.912-0.597,1.547-0.597c0.738,0,1.316,0.206,1.719,0.611
					c0.676,0.684,0.666,1.698,0.654,2.679c-0.008,0.827-0.018,1.682,0.404,2.107c0.289,0.293,0.83,0.441,1.602,0.441
					c0.078,0,0.318,0,0.646-0.339c2.957-3.034,3.168-20.259,3-26.639c0.017-1.035,0.504-2.936,2.225-2.936
					c1.904,0,2.189,3.656,2.189,5.837v0.729h-2.908c0.012,6.877-0.359,20.845-3.46,24.027c-0.503,0.517-1.072,0.778-1.692,0.778
					c-1.193,0-2.058-0.286-2.639-0.873c-0.85-0.859-0.836-2.075-0.824-3.148c0.006-0.683,0.014-1.386-0.234-1.635
					c-0.145-0.149-0.449-0.18-0.682-0.18c-0.313,0-0.441,0.094-0.512,0.163c-0.421,0.425-0.411,1.756-0.404,2.93
					c0.012,1.717,0.027,3.665-1.096,4.793C39.489,56.853,38.692,57.145,37.692,57.145z M51.591,27.96h1.443
					c-0.075-1.782-0.409-3.435-0.771-3.661c-0.643,0.013-0.709,1.47-0.709,1.485C51.565,26.136,51.582,26.9,51.591,27.96z"/>
			</g>
		</g>
	</g>
	<path fill="#CBD5DA" d="M74,77H4c-1.654,0-3-1.346-3-3V4c0-1.654,1.346-3,3-3h70c1.654,0,3,1.346,3,3v70C77,75.654,75.654,77,74,77
		z M4,3C3.449,3,3,3.448,3,4v70c0,0.552,0.449,1,1,1h70c0.551,0,1-0.448,1-1V4c0-0.552-0.449-1-1-1H4z"/>
</g>
</svg>
