<?xml version="1.0" encoding="utf-8"?>
<!-- Generator: Adobe Illustrator 16.0.0, SVG Export Plug-In . SVG Version: 6.00 Build 0)  -->
<!DOCTYPE svg PUBLIC "-//W3C//DTD SVG 1.1//EN" "http://www.w3.org/Graphics/SVG/1.1/DTD/svg11.dtd">
<svg version="1.1" id="Layer_1" xmlns="http://www.w3.org/2000/svg" xmlns:xlink="http://www.w3.org/1999/xlink" x="0px" y="0px"
	 width="78px" height="78px" viewBox="0 0 78 78" enable-background="new 0 0 78 78" xml:space="preserve">
<g>
	<rect x="1.913" y="1.784" fill="#11253A" width="73.499" height="74.334"/>
	<path fill="#11253A" d="M74,77.001H4c-1.654,0-3-1.346-3-3V4c0-1.654,1.346-3,3-3h70c1.654,0,3,1.346,3,3v70.001
		C77,75.655,75.654,77.001,74,77.001z M4,3C3.448,3,3,3.448,3,4v70.001c0,0.551,0.448,1,1,1h70c0.551,0,1-0.449,1-1V4
		c0-0.552-0.449-1-1-1H4z"/>
	<g>
		<path fill="#FFFFFF" stroke="#FFFFFF" stroke-miterlimit="10" d="M28.523,39.637h-4.503c-1.619,0-2.937-1.422-2.937-3.172V25.671
			c0-1.749,1.317-3.172,2.937-3.172h29.958c1.619,0,2.938,1.423,2.938,3.172v10.717c0,1.749-1.318,3.171-2.938,3.171h-4.579v-0.555
			h4.579c1.313,0,2.381-1.174,2.381-2.616V25.671c0-1.442-1.068-2.616-2.381-2.616H24.021c-1.313,0-2.382,1.174-2.382,2.616v10.794
			c0,1.443,1.068,2.617,2.382,2.617h4.503V39.637z"/>
		
			<rect x="28.998" y="28.792" fill="#11253A" stroke="#282828" stroke-width="0.885" stroke-miterlimit="10" width="19.757" height="25.219"/>
		<g>
			<path fill="#FFFFFF" d="M28.438,28.242v23.579c0,1.75,1.32,3.182,2.94,3.182h15.25c1.62,0,2.94-1.432,2.94-3.182V28.242H28.438z
				 M49.008,51.821c0,1.451-1.07,2.621-2.38,2.621h-15.25c-1.32,0-2.38-1.17-2.38-2.621V28.792h20.01V51.821z"/>
			<path fill="#FFFFFF" d="M27.938,27.742v24.079c0,2.031,1.54,3.682,3.44,3.682h15.25c1.89,0,3.44-1.65,3.44-3.682V27.742H27.938z
				 M48.508,51.821c0,1.172-0.84,2.121-1.88,2.121h-15.25c-1.04,0-1.88-0.949-1.88-2.121V29.292h19.01V51.821z"/>
		</g>
		<path fill="none" stroke="#FFFFFF" stroke-miterlimit="10" d="M36.098,28.242v26.829h5.8V28.242H36.098z M41.338,54.522h-4.68
			v-25.73h4.68V54.522z"/>
		<path fill="#FFFFFF" d="M35.938,33.092v1h0.881v-1H35.938z M51.668,26.912h-25.54c-0.83,0-1.5,0.67-1.5,1.5v3.18
			c0,0.83,0.67,1.5,1.5,1.5h3.37v-1h-3.37c-0.271,0-0.5-0.22-0.5-0.5v-3.18c0-0.28,0.229-0.5,0.5-0.5h25.54c0.27,0,0.5,0.22,0.5,0.5
			v3.18c0,0.28-0.23,0.5-0.5,0.5h-3.16v1h3.16c0.83,0,1.5-0.67,1.5-1.5v-3.18C53.168,27.582,52.498,26.912,51.668,26.912z
			 M41.178,33.092v1h0.891v-1H41.178z"/>
	</g>
</g>
</svg>
