<?xml version="1.0" encoding="utf-8"?>
<!-- Generator: Adobe Illustrator 16.0.0, SVG Export Plug-In . SVG Version: 6.00 Build 0)  -->
<!DOCTYPE svg PUBLIC "-//W3C//DTD SVG 1.1//EN" "http://www.w3.org/Graphics/SVG/1.1/DTD/svg11.dtd">
<svg version="1.1" id="Layer_1" xmlns="http://www.w3.org/2000/svg" xmlns:xlink="http://www.w3.org/1999/xlink" x="0px" y="0px"
	 width="78px" height="78px" viewBox="0 0 78 78" enable-background="new 0 0 78 78" xml:space="preserve">
<g>
	<g>
		<path fill="#333333" d="M60.419,53.766h-42.84c-1.48,0-2.686-1.205-2.686-2.688V26.924c0-1.482,1.205-2.688,2.686-2.688h42.84
			c1.482,0,2.688,1.205,2.688,2.688v24.154C63.106,52.561,61.901,53.766,60.419,53.766z M17.579,25.58
			c-0.74,0-1.342,0.602-1.342,1.344v24.154c0,0.742,0.602,1.344,1.342,1.344h42.84c0.742,0,1.344-0.602,1.344-1.344V26.924
			c0-0.742-0.602-1.344-1.344-1.344H17.579z"/>
		<rect x="18.833" y="46.32" fill="#333333" width="40.334" height="1.334"/>
		<g>
			<path fill="#333333" d="M57.632,40.146c0,0.465-0.168,0.84-0.506,1.121c-0.336,0.283-0.809,0.453-1.414,0.508v0.902H55.11v-0.885
				c-0.715-0.014-1.342-0.141-1.881-0.377v-1.16c0.254,0.125,0.561,0.236,0.92,0.334c0.359,0.096,0.68,0.154,0.961,0.172v-1.363
				l-0.295-0.113c-0.58-0.229-0.99-0.479-1.232-0.746s-0.363-0.6-0.363-0.994c0-0.426,0.166-0.775,0.5-1.049
				c0.332-0.273,0.795-0.439,1.391-0.498v-0.674h0.602v0.656c0.67,0.029,1.277,0.164,1.818,0.404l-0.412,1.027
				c-0.457-0.188-0.926-0.301-1.406-0.342v1.295c0.57,0.221,0.979,0.41,1.219,0.572c0.242,0.16,0.42,0.338,0.533,0.531
				C57.575,39.662,57.632,39.889,57.632,40.146z M54.542,37.545c0,0.129,0.045,0.234,0.135,0.318
				c0.09,0.082,0.234,0.168,0.434,0.256v-1.031C54.731,37.143,54.542,37.295,54.542,37.545z M56.31,40.211
				c0-0.123-0.051-0.227-0.15-0.311c-0.1-0.086-0.248-0.174-0.447-0.264v1.094C56.11,40.662,56.31,40.49,56.31,40.211z"/>
		</g>
	</g>
	<path fill="#CBD5DA" d="M74,77H4c-1.654,0-3-1.346-3-3V4c0-1.654,1.346-3,3-3h70c1.654,0,3,1.346,3,3v70C77,75.654,75.654,77,74,77
		z M4,3C3.449,3,3,3.448,3,4v70C3,74.552,3.449,75,4,75h70c0.552,0,1-0.448,1-1V4c0-0.552-0.448-1-1-1H4z"/>
</g>
</svg>
