<?xml version="1.0" encoding="utf-8"?>
<!-- Generator: Adobe Illustrator 16.0.0, SVG Export Plug-In . SVG Version: 6.00 Build 0)  -->
<!DOCTYPE svg PUBLIC "-//W3C//DTD SVG 1.1//EN" "http://www.w3.org/Graphics/SVG/1.1/DTD/svg11.dtd">
<svg version="1.1" id="Layer_1" xmlns="http://www.w3.org/2000/svg" xmlns:xlink="http://www.w3.org/1999/xlink" x="0px" y="0px"
	 width="78px" height="78px" viewBox="0 0 78 78" enable-background="new 0 0 78 78" xml:space="preserve">
<g>
	<g>
		<g>
			<path fill="none" stroke="#333333" stroke-width="1.4598" stroke-miterlimit="10" d="M56.227,48.36
				c0,1.204-0.984,2.189-2.189,2.189H23.963c-1.204,0-2.189-0.985-2.189-2.189V25.729c0-1.204,0.985-2.189,2.189-2.189h30.074
				c1.205,0,2.189,0.985,2.189,2.189V48.36z"/>
		</g>
		<rect x="21.774" y="43.976" fill="#333333" width="34.453" height="1.542"/>
		<circle fill="#333333" cx="39" cy="47.557" r="0.754"/>
		<rect x="38.247" y="50.55" fill="#333333" width="1.508" height="2.547"/>
		<g>
			<path fill="#333333" d="M48.215,53.729c0,0.401-0.328,0.729-0.729,0.729H30.515c-0.401,0-0.729-0.328-0.729-0.729v-0.07
				c0-0.401,0.328-0.729,0.729-0.729h16.971c0.4,0,0.729,0.328,0.729,0.729V53.729z"/>
		</g>
	</g>
	<path fill="#CBD5DA" d="M74,77H4c-1.654,0-3-1.346-3-3V4c0-1.654,1.346-3,3-3h70c1.654,0,3,1.346,3,3v70C77,75.654,75.654,77,74,77
		z M4,3C3.449,3,3,3.448,3,4v70c0,0.552,0.448,1,1,1h70c0.553,0,1-0.448,1-1V4c0-0.552-0.447-1-1-1H4z"/>
</g>
</svg>
