<?xml version="1.0" encoding="utf-8"?>
<!-- Generator: Adobe Illustrator 16.0.0, SVG Export Plug-In . SVG Version: 6.00 Build 0)  -->
<!DOCTYPE svg PUBLIC "-//W3C//DTD SVG 1.1//EN" "http://www.w3.org/Graphics/SVG/1.1/DTD/svg11.dtd">
<svg version="1.1" id="Layer_1" xmlns="http://www.w3.org/2000/svg" xmlns:xlink="http://www.w3.org/1999/xlink" x="0px" y="0px"
	 width="78px" height="78px" viewBox="0 0 78 78" enable-background="new 0 0 78 78" xml:space="preserve">
<g>
	<rect x="2.351" y="2.32" fill="#11253A" width="73.5" height="74.333"/>
	<g id="Expanded_3_">
		<g>
			<g>
				<rect x="31.507" y="46.929" fill="#FFFFFF" width="10.907" height="1.461"/>
			</g>
			<g>
				<rect x="40.719" y="52.768" fill="#FFFFFF" width="6.073" height="1.458"/>
			</g>
			<g>
				<path fill="#FFFFFF" d="M40.262,30.879h-2.92c-0.402,0-0.729-0.326-0.729-0.729s0.326-0.729,0.729-0.729h2.92
					c0.402,0,0.729,0.326,0.729,0.729S40.664,30.879,40.262,30.879z"/>
			</g>
			<g>
				<path fill="#FFFFFF" d="M46.827,33.797h-8.024c-0.402,0-0.729-0.325-0.729-0.729c0-0.405,0.326-0.73,0.729-0.73h8.024
					c0.403,0,0.729,0.325,0.729,0.73C47.557,33.472,47.23,33.797,46.827,33.797z"/>
			</g>
			<g>
				<path fill="#FFFFFF" d="M46.097,36.716h-9.483c-0.403,0-0.73-0.325-0.73-0.729c0-0.403,0.327-0.729,0.73-0.729h9.483
					c0.403,0,0.73,0.326,0.73,0.729C46.827,36.391,46.5,36.716,46.097,36.716z"/>
			</g>
			<g>
				<path fill="#FFFFFF" d="M46.827,39.635H36.613c-0.403,0-0.73-0.325-0.73-0.73c0-0.404,0.327-0.729,0.73-0.729h10.214
					c0.403,0,0.729,0.325,0.729,0.729C47.557,39.31,47.23,39.635,46.827,39.635z"/>
			</g>
			<g>
				<path fill="#FFFFFF" d="M45.368,42.552h-8.755c-0.403,0-0.73-0.326-0.73-0.729c0-0.403,0.327-0.73,0.73-0.73h8.755
					c0.402,0,0.729,0.327,0.729,0.73C46.097,42.226,45.771,42.552,45.368,42.552z"/>
			</g>
			<g>
				<path fill="#FFFFFF" d="M46.097,45.472H35.883c-0.401,0-0.729-0.327-0.729-0.731c0-0.401,0.327-0.728,0.729-0.728h10.214
					c0.403,0,0.73,0.326,0.73,0.728C46.827,45.145,46.5,45.472,46.097,45.472z"/>
			</g>
			<g>
				<rect x="34.461" y="22.854" fill="#FFFFFF" width="18.202" height="1.457"/>
			</g>
			<g>
				<path fill="#FFFFFF" d="M38.035,57.145H19.832v-1.459c0.604,0,1.04-0.143,1.332-0.438c0.693-0.698,0.682-2.322,0.672-3.755
					c-0.012-1.602-0.021-3.114,0.827-3.967c0.392-0.395,0.913-0.597,1.547-0.597h6.692c1.471-8,1.334-21.015,1.333-21.147
					c0.017-1.026,0.503-2.927,2.226-2.927v1.457c-0.699,0-0.766,1.457-0.766,1.473c0.006,0.545,0.145,13.937-1.475,22.019
					l-0.118,0.587H24.21c-0.313,0-0.442,0.094-0.512,0.163c-0.42,0.425-0.411,1.756-0.403,2.93c0.01,1.445,0.021,3.057-0.645,4.203
					h15.385c0.604,0,1.04-0.143,1.332-0.438c0.695-0.698,0.682-2.322,0.672-3.755c-0.012-1.602-0.022-3.114,0.828-3.967
					c0.392-0.395,0.912-0.597,1.547-0.597c0.738,0,1.316,0.206,1.719,0.611c0.676,0.684,0.665,1.698,0.654,2.679
					c-0.008,0.827-0.018,1.682,0.403,2.107c0.29,0.293,0.83,0.441,1.602,0.441c0.078,0,0.319,0,0.647-0.339
					c2.956-3.034,3.167-20.259,3-26.639c0.016-1.035,0.504-2.936,2.224-2.936c1.905,0,2.19,3.656,2.19,5.837v0.729h-2.908
					c0.011,6.877-0.359,20.845-3.461,24.027c-0.502,0.517-1.072,0.778-1.692,0.778c-1.192,0-2.058-0.286-2.639-0.873
					c-0.849-0.859-0.835-2.075-0.824-3.148c0.006-0.683,0.015-1.386-0.233-1.635c-0.145-0.149-0.45-0.18-0.682-0.18
					c-0.313,0-0.441,0.094-0.512,0.163c-0.422,0.425-0.412,1.756-0.404,2.93c0.012,1.717,0.026,3.665-1.097,4.793
					C39.832,56.853,39.035,57.145,38.035,57.145z M51.934,27.96h1.443c-0.074-1.782-0.408-3.435-0.77-3.661
					c-0.643,0.013-0.71,1.47-0.71,1.485C51.908,26.136,51.925,26.9,51.934,27.96z"/>
			</g>
		</g>
	</g>
	<path fill="#11253A" d="M74.343,77h-70c-1.654,0-3-1.346-3-3V4c0-1.654,1.346-3,3-3h70c1.654,0,3,1.346,3,3v70
		C77.343,75.654,75.997,77,74.343,77z M4.343,3c-0.551,0-1,0.448-1,1v70c0,0.552,0.449,1,1,1h70c0.552,0,1-0.448,1-1V4
		c0-0.552-0.448-1-1-1H4.343z"/>
</g>
</svg>
