<?xml version="1.0" encoding="utf-8"?>
<!-- Generator: Adobe Illustrator 16.0.0, SVG Export Plug-In . SVG Version: 6.00 Build 0)  -->
<!DOCTYPE svg PUBLIC "-//W3C//DTD SVG 1.1//EN" "http://www.w3.org/Graphics/SVG/1.1/DTD/svg11.dtd">
<svg version="1.1" id="Layer_1" xmlns="http://www.w3.org/2000/svg" xmlns:xlink="http://www.w3.org/1999/xlink" x="0px" y="0px"
	 width="78px" height="78px" viewBox="0 0 78 78" enable-background="new 0 0 78 78" xml:space="preserve">
<g>
	<g>
		
			<path fill="none" stroke="#333333" stroke-width="1.3845" stroke-linecap="round" stroke-linejoin="round" stroke-miterlimit="10" d="
			M39.364,44.308c1.519,1.971,3.896,3.246,6.576,3.246c4.588,0,8.308-3.72,8.308-8.307s-3.72-8.308-8.308-8.308
			c-2.68,0-5.058,1.275-6.576,3.246"/>
		<g>
			<polygon fill="#333333" points="29.327,37.168 27.942,37.168 27.942,38.554 29.327,38.554 			"/>
		</g>
		<g>
			<polygon fill="#333333" points="29.327,39.938 27.942,39.938 27.942,41.322 29.327,41.322 			"/>
		</g>
		<g>
			<polygon fill="#333333" points="26.559,38.554 25.174,38.554 25.174,39.938 26.559,39.938 			"/>
		</g>
		<g>
			<polygon fill="#333333" points="32.097,35.784 30.712,35.784 30.712,37.168 32.097,37.168 			"/>
		</g>
		<g>
			<polygon fill="#333333" points="32.097,41.322 30.712,41.322 30.712,42.707 32.097,42.707 			"/>
		</g>
		<g>
			<polygon fill="#333333" points="32.097,44.09 30.712,44.09 30.712,45.476 32.097,45.476 			"/>
		</g>
		<g>
			<polygon fill="#333333" points="32.097,38.554 30.712,38.554 30.712,39.938 32.097,39.938 			"/>
		</g>
		<g>
			<polygon fill="#333333" points="32.097,33.016 30.712,33.016 30.712,34.399 32.097,34.399 			"/>
		</g>
		<g>
			<polygon fill="#333333" points="32.097,38.554 30.712,38.554 30.712,39.938 32.097,39.938 			"/>
		</g>
		<g>
			<polygon fill="#333333" points="32.097,35.784 30.712,35.784 30.712,37.168 32.097,37.168 			"/>
		</g>
		<g>
			<polygon fill="#333333" points="37.635,35.784 36.25,35.784 36.25,37.168 37.635,37.168 			"/>
		</g>
		<g>
			<polygon fill="#333333" points="37.635,41.322 36.25,41.322 36.25,42.707 37.635,42.707 			"/>
		</g>
		<g>
			<polygon fill="#333333" points="37.635,44.09 36.25,44.09 36.25,45.476 37.635,45.476 			"/>
		</g>
		<g>
			<polygon fill="#333333" points="37.635,38.554 36.25,38.554 36.25,39.938 37.635,39.938 			"/>
		</g>
		<g>
			<polygon fill="#333333" points="37.635,33.016 36.25,33.016 36.25,34.399 37.635,34.399 			"/>
		</g>
		<g>
			<polygon fill="#333333" points="37.635,38.554 36.25,38.554 36.25,39.938 37.635,39.938 			"/>
		</g>
		<g>
			<polygon fill="#333333" points="37.635,35.784 36.25,35.784 36.25,37.168 37.635,37.168 			"/>
		</g>
		<g>
			<polygon fill="#333333" points="29.327,42.707 27.942,42.707 27.942,44.09 29.327,44.09 			"/>
		</g>
		<g>
			<polygon fill="#333333" points="29.327,34.399 27.942,34.399 27.942,35.784 29.327,35.784 			"/>
		</g>
		<g>
			<polygon fill="#333333" points="34.865,37.168 33.481,37.168 33.481,38.554 34.865,38.554 			"/>
		</g>
		<g>
			<polygon fill="#333333" points="34.865,39.938 33.481,39.938 33.481,41.322 34.865,41.322 			"/>
		</g>
		<g>
			<polygon fill="#333333" points="40.402,37.168 39.018,37.168 39.018,38.554 40.402,38.554 			"/>
		</g>
		<g>
			<polygon fill="#333333" points="40.402,39.938 39.018,39.938 39.018,41.322 40.402,41.322 			"/>
		</g>
		<g>
			<polygon fill="#333333" points="34.865,42.707 33.481,42.707 33.481,44.09 34.865,44.09 			"/>
		</g>
		<g>
			<polygon fill="#333333" points="34.865,45.476 33.481,45.476 33.481,46.86 34.865,46.86 			"/>
		</g>
		<g>
			<polygon fill="#333333" points="34.865,34.399 33.481,34.399 33.481,35.784 34.865,35.784 			"/>
		</g>
		<g>
			<polygon fill="#333333" points="34.865,31.632 33.481,31.632 33.481,33.016 34.865,33.016 			"/>
		</g>
		<g>
			<path fill="#333333" d="M29.327,31.702c-0.489,0.226-0.952,0.495-1.385,0.807v0.507h1.385V31.702L29.327,31.702z"/>
		</g>
		<g>
			<path fill="#333333" d="M29.327,45.476h-1.385v0.51c0.433,0.31,0.896,0.58,1.385,0.806V45.476L29.327,45.476z"/>
		</g>
		<g>
			<path fill="#333333" d="M26.559,35.784h-1.313c-0.024,0.049-0.049,0.098-0.071,0.147v1.236h1.385V35.784L26.559,35.784z"/>
		</g>
		<g>
			<path fill="#333333" d="M26.559,41.322h-1.385v1.238c0.021,0.051,0.047,0.097,0.071,0.146h1.313V41.322L26.559,41.322z"/>
		</g>
		
			<circle fill="none" stroke="#333333" stroke-width="1.3845" stroke-linecap="round" stroke-linejoin="round" stroke-miterlimit="10" cx="32.788" cy="39.247" r="8.307"/>
		<path fill="#333333" d="M58.112,53.241H19.886c-1.421,0-2.577-1.156-2.577-2.578V27.486c0-1.423,1.156-2.579,2.577-2.579h38.227
			c1.423,0,2.579,1.156,2.579,2.579v23.177C60.691,52.085,59.535,53.241,58.112,53.241z M19.886,26.196
			c-0.711,0-1.288,0.578-1.288,1.29v23.177c0,0.712,0.577,1.289,1.288,1.289h38.227c0.713,0,1.29-0.577,1.29-1.289V27.486
			c0-0.712-0.577-1.29-1.29-1.29H19.886z"/>
	</g>
	<path fill="#CBD5DA" d="M73.999,77H4c-1.654,0-3-1.346-3-3V4c0-1.654,1.346-3,3-3h69.999c1.654,0,3,1.346,3,3v70
		C76.999,75.654,75.653,77,73.999,77z M4,3C3.449,3,3,3.448,3,4v70c0,0.552,0.448,1,1,1h69.999c0.552,0,1-0.448,1-1V4
		c0-0.552-0.448-1-1-1H4z"/>
</g>
</svg>
