<?xml version="1.0" encoding="utf-8"?>
<!-- Generator: Adobe Illustrator 16.0.0, SVG Export Plug-In . SVG Version: 6.00 Build 0)  -->
<!DOCTYPE svg PUBLIC "-//W3C//DTD SVG 1.1//EN" "http://www.w3.org/Graphics/SVG/1.1/DTD/svg11.dtd">
<svg version="1.1" id="Layer_1" xmlns="http://www.w3.org/2000/svg" xmlns:xlink="http://www.w3.org/1999/xlink" x="0px" y="0px"
	 width="78px" height="78px" viewBox="0 0 78 78" enable-background="new 0 0 78 78" xml:space="preserve">
<g>
	<rect x="2.496" y="1.307" fill="#11253A" width="73.5" height="74.333"/>
	<g>
		<path fill="#FFFFFF" d="M54.037,51.279H23.963c-1.609,0-2.919-1.31-2.919-2.919V25.729c0-1.609,1.31-2.919,2.919-2.919h30.074
			c1.609,0,2.919,1.31,2.919,2.919V48.36C56.956,49.97,55.646,51.279,54.037,51.279z M23.963,24.27c-0.805,0-1.46,0.655-1.46,1.46
			V48.36c0,0.805,0.655,1.46,1.46,1.46h30.074c0.805,0,1.46-0.655,1.46-1.46V25.729c0-0.805-0.655-1.46-1.46-1.46H23.963z"/>
		<rect x="21.773" y="43.976" fill="#FFFFFF" width="34.453" height="1.542"/>
		<circle fill="#FFFFFF" cx="39" cy="47.557" r="0.754"/>
		<rect x="38.246" y="50.55" fill="#FFFFFF" width="1.508" height="2.547"/>
		<g>
			<path fill="#FFFFFF" d="M48.215,53.729c0,0.401-0.328,0.729-0.729,0.729H30.515c-0.401,0-0.729-0.328-0.729-0.729v-0.07
				c0-0.401,0.328-0.729,0.729-0.729h16.971c0.401,0,0.729,0.328,0.729,0.729V53.729z"/>
		</g>
	</g>
	<path fill="#11253A" d="M74,77H4c-1.654,0-3-1.346-3-3V4c0-1.654,1.346-3,3-3h70c1.654,0,3,1.346,3,3v70C77,75.654,75.654,77,74,77
		z M4,3C3.448,3,3,3.448,3,4v70c0,0.552,0.448,1,1,1h70c0.552,0,1-0.448,1-1V4c0-0.552-0.448-1-1-1H4z"/>
</g>
</svg>
