<?xml version="1.0" encoding="utf-8"?>
<!-- Generator: Adobe Illustrator 16.0.0, SVG Export Plug-In . SVG Version: 6.00 Build 0)  -->
<!DOCTYPE svg PUBLIC "-//W3C//DTD SVG 1.1//EN" "http://www.w3.org/Graphics/SVG/1.1/DTD/svg11.dtd">
<svg version="1.1" id="Layer_1" xmlns="http://www.w3.org/2000/svg" xmlns:xlink="http://www.w3.org/1999/xlink" x="0px" y="0px"
	 width="78px" height="78px" viewBox="0 0 78 78" enable-background="new 0 0 78 78" xml:space="preserve">
<g>
	<rect x="1.923" y="2.021" fill="#11253A" width="73.499" height="74.333"/>
	<g>
		<path fill="#FFFFFF" d="M45.941,48.187c-2.807,0-5.402-1.281-7.125-3.516c-0.233-0.303-0.178-0.738,0.125-0.971
			c0.303-0.235,0.738-0.178,0.971,0.125c1.458,1.892,3.656,2.977,6.029,2.977c4.199,0,7.615-3.416,7.615-7.614
			c0-4.199-3.416-7.615-7.615-7.615c-2.373,0-4.57,1.085-6.029,2.977c-0.232,0.302-0.667,0.36-0.971,0.125
			c-0.303-0.232-0.358-0.668-0.125-0.971c1.722-2.234,4.318-3.516,7.125-3.516c4.963,0,9,4.037,9,9
			C54.941,44.149,50.904,48.187,45.941,48.187z"/>
		<g>
			<polygon fill="#FFFFFF" points="29.328,37.108 27.943,37.108 27.943,38.494 29.328,38.494 			"/>
		</g>
		<g>
			<polygon fill="#FFFFFF" points="29.328,39.879 27.943,39.879 27.943,41.263 29.328,41.263 			"/>
		</g>
		<g>
			<polygon fill="#FFFFFF" points="26.559,38.494 25.174,38.494 25.174,39.879 26.559,39.879 			"/>
		</g>
		<g>
			<polygon fill="#FFFFFF" points="32.097,35.725 30.712,35.725 30.712,37.108 32.097,37.108 			"/>
		</g>
		<g>
			<polygon fill="#FFFFFF" points="32.097,41.263 30.712,41.263 30.712,42.647 32.097,42.647 			"/>
		</g>
		<g>
			<polygon fill="#FFFFFF" points="32.097,44.03 30.712,44.03 30.712,45.416 32.097,45.416 			"/>
		</g>
		<g>
			<polygon fill="#FFFFFF" points="32.097,38.494 30.712,38.494 30.712,39.879 32.097,39.879 			"/>
		</g>
		<g>
			<polygon fill="#FFFFFF" points="32.097,32.956 30.712,32.956 30.712,34.34 32.097,34.34 			"/>
		</g>
		<g>
			<polygon fill="#FFFFFF" points="32.097,38.494 30.712,38.494 30.712,39.879 32.097,39.879 			"/>
		</g>
		<g>
			<polygon fill="#FFFFFF" points="32.097,35.725 30.712,35.725 30.712,37.108 32.097,37.108 			"/>
		</g>
		<g>
			<polygon fill="#FFFFFF" points="37.635,35.725 36.25,35.725 36.25,37.108 37.635,37.108 			"/>
		</g>
		<g>
			<polygon fill="#FFFFFF" points="37.635,41.263 36.25,41.263 36.25,42.647 37.635,42.647 			"/>
		</g>
		<g>
			<polygon fill="#FFFFFF" points="37.635,44.03 36.25,44.03 36.25,45.416 37.635,45.416 			"/>
		</g>
		<g>
			<polygon fill="#FFFFFF" points="37.635,38.494 36.25,38.494 36.25,39.879 37.635,39.879 			"/>
		</g>
		<g>
			<polygon fill="#FFFFFF" points="37.635,32.956 36.25,32.956 36.25,34.34 37.635,34.34 			"/>
		</g>
		<g>
			<polygon fill="#FFFFFF" points="37.635,38.494 36.25,38.494 36.25,39.879 37.635,39.879 			"/>
		</g>
		<g>
			<polygon fill="#FFFFFF" points="37.635,35.725 36.25,35.725 36.25,37.108 37.635,37.108 			"/>
		</g>
		<g>
			<polygon fill="#FFFFFF" points="29.328,42.647 27.943,42.647 27.943,44.03 29.328,44.03 			"/>
		</g>
		<g>
			<polygon fill="#FFFFFF" points="29.328,34.34 27.943,34.34 27.943,35.725 29.328,35.725 			"/>
		</g>
		<g>
			<polygon fill="#FFFFFF" points="34.866,37.108 33.482,37.108 33.482,38.494 34.866,38.494 			"/>
		</g>
		<g>
			<polygon fill="#FFFFFF" points="34.866,39.879 33.482,39.879 33.482,41.263 34.866,41.263 			"/>
		</g>
		<g>
			<polygon fill="#FFFFFF" points="40.402,37.108 39.018,37.108 39.018,38.494 40.402,38.494 			"/>
		</g>
		<g>
			<polygon fill="#FFFFFF" points="40.402,39.879 39.018,39.879 39.018,41.263 40.402,41.263 			"/>
		</g>
		<g>
			<polygon fill="#FFFFFF" points="34.866,42.647 33.482,42.647 33.482,44.03 34.866,44.03 			"/>
		</g>
		<g>
			<polygon fill="#FFFFFF" points="34.866,45.416 33.482,45.416 33.482,46.801 34.866,46.801 			"/>
		</g>
		<g>
			<polygon fill="#FFFFFF" points="34.866,34.34 33.482,34.34 33.482,35.725 34.866,35.725 			"/>
		</g>
		<g>
			<polygon fill="#FFFFFF" points="34.866,31.572 33.482,31.572 33.482,32.956 34.866,32.956 			"/>
		</g>
		<g>
			<path fill="#FFFFFF" d="M29.328,31.643c-0.489,0.226-0.952,0.495-1.385,0.807v0.507h1.385V31.643L29.328,31.643z"/>
		</g>
		<g>
			<path fill="#FFFFFF" d="M29.328,45.416h-1.385v0.51c0.433,0.31,0.896,0.58,1.385,0.806V45.416L29.328,45.416z"/>
		</g>
		<g>
			<path fill="#FFFFFF" d="M26.559,35.725h-1.313c-0.024,0.049-0.049,0.098-0.071,0.147v1.236h1.385V35.725L26.559,35.725z"/>
		</g>
		<g>
			<path fill="#FFFFFF" d="M26.559,41.263h-1.385v1.238c0.021,0.051,0.047,0.097,0.071,0.146h1.313V41.263L26.559,41.263z"/>
		</g>
		<path fill="#FFFFFF" d="M32.789,48.187c-4.962,0-8.998-4.037-8.998-9c0-4.962,4.036-8.999,8.998-8.999c4.963,0,9,4.037,9,8.999
			C41.789,44.149,37.751,48.187,32.789,48.187z M32.789,31.572c-4.198,0-7.613,3.416-7.613,7.614c0,4.199,3.415,7.615,7.613,7.615
			c4.199,0,7.616-3.416,7.616-7.615C40.404,34.988,36.988,31.572,32.789,31.572z"/>
		<path fill="#FFFFFF" d="M58.113,53.182H19.886c-1.421,0-2.577-1.156-2.577-2.578V27.427c0-1.423,1.156-2.579,2.577-2.579h38.227
			c1.422,0,2.578,1.156,2.578,2.579v23.177C60.691,52.025,59.535,53.182,58.113,53.182z M19.886,26.137
			c-0.711,0-1.288,0.578-1.288,1.29v23.177c0,0.712,0.577,1.289,1.288,1.289h38.227c0.713,0,1.289-0.577,1.289-1.289V27.427
			c0-0.712-0.576-1.29-1.289-1.29H19.886z"/>
	</g>
	<path fill="#11253A" d="M74,76.94H4.001c-1.654,0-3-1.346-3-3v-70c0-1.654,1.346-3,3-3H74c1.654,0,3,1.346,3,3v70
		C77,75.595,75.654,76.94,74,76.94z M4.001,2.94c-0.553,0-1,0.448-1,1v70c0,0.552,0.447,1,1,1H74c0.551,0,1-0.448,1-1v-70
		c0-0.552-0.449-1-1-1H4.001z"/>
</g>
</svg>
